<?xml version="1.0" standalone="no"?>
<!DOCTYPE svg PUBLIC "-//W3C//DTD SVG 20010904//EN"
 "http://www.w3.org/TR/2001/REC-SVG-20010904/DTD/svg10.dtd">
<svg version="1.0" xmlns="http://www.w3.org/2000/svg"
 width="96.000000pt" height="96.000000pt" viewBox="0 0 96.000000 96.000000"
 preserveAspectRatio="xMidYMid meet">
<metadata>
Created by potrace 1.14, written by Peter Selinger 2001-2017
</metadata>
<g transform="translate(0.000000,96.000000) scale(0.100000,-0.100000)"
fill="#000000" stroke="none">
<path d="M493 877 c10 -79 -19 -122 -149 -226 -57 -46 -115 -121 -128 -166
-21 -75 -22 -110 -7 -164 37 -131 158 -225 286 -225 116 1 216 71 252 179 33
98 18 173 -52 278 -36 54 -42 83 -24 120 6 14 -3 8 -25 -15 -31 -33 -43 -64
-37 -100 4 -30 -38 28 -44 60 -2 11 3 37 10 58 24 71 5 141 -56 206 l-31 33 5
-38z"/>
<path d="M337 857 c4 -29 0 -44 -27 -81 -29 -40 -32 -49 -22 -71 12 -26 32
-34 32 -12 0 7 16 28 35 47 50 49 48 97 -7 139 -15 11 -16 9 -11 -22z"/>
</g>
</svg>
